<svg id="Layer_1" data-name="Layer 1" xmlns="http://www.w3.org/2000/svg" viewBox="0 0 151.98 246.27"><defs><style>.cls-1{fill:#fdfdfd;}.cls-2{fill:#050505;}.cls-3{fill:#0a0a0a;}</style></defs><title>kindling</title><path class="cls-1" d="M289.64,415.05c.07,23.72,2.18,47.28,2.12,70.9,0,14,.14,28-.08,42-.08,4.77,2.12,6.76,6.41,7,3.49.21,7,.26,10.5.18,5.23-.12,8-2.33,8.77-7.66,1.66-11.19,2-22.25-4.54-32.34-2.95-4.53-5.19-9.55-5.31-14.92-.38-17.63-2.33-35.26-.57-52.91.08-.91-.39-2.17,1.06-2.37,1.22-.17,1.64.89,2.1,1.77,2.81,5.31,5.68,10.59,9.73,15.08,14.31,15.8,19.47,36.13,27.09,55.18,3,7.61,2.4,16,2.43,24.24,0,7.27,3.73,11.66,10.94,12.48a57.62,57.62,0,0,0,13.95-.08c7.8-1,10.31-5,9.22-13-.55-4.07-2.37-7.6-4-11.22-7.85-16.95-18.49-32.39-26.69-49.15-1.24-2.54-2.22-5.35-4-7.47a208.28,208.28,0,0,1-22-32.75c-8.31-15-21.71-26.68-27.59-43.2-1-2.74-3.33-2.93-5-.51-6.41,9.48-13.91,18.31-18.34,29-5.75,13.86-12.51,27.25-19.53,40.45a333.23,333.23,0,0,0-19.79,45.25A78.35,78.35,0,0,0,231.84,522c.56,9.6,6.87,16.34,14.33,14.78,6.91-1.45,9.52-7.25,10.62-13.19,3.8-20.49,9.3-40.55,14.36-60.73C275.32,446.18,282.53,430.72,289.64,415.05Zm-2.52-109.39C290.47,314,294,315.8,301.6,314a5.55,5.55,0,0,0,1.44-.39c3.28-1.82,4.82-.09,6.07,2.74,3.05,6.92,3.78,13.48,1.22,21.16-6.73,20.23-4.83,26.71,11.86,37.67,1.94,1.28,3.81,2.69,5.79,3.9,6.33,3.86,12.66,7.5,11.8,16.64-.27,2.91,2,5,5.07,5.13,3.37.14,5.38-1.88,5.75-5.07.81-7.07-.28-13.37-6.2-18.51-5.08-4.41-10.84-7.69-16.26-11.53-11.21-7.94-13-8.72-7.31-24.15,4.58-12.48,2.34-23.14-3.79-33.78-3.53-6.14-7.11-7.86-13.78-5.8-4.27,1.33-5.74-.2-6.83-3.64-1.22-3.87-3.17-7-7.63-7.62s-6.46,2.83-8.42,5.88c-5.59,8.66-10.78,17.57-18.16,25-5.12,5.14-8.34,11.65-11.37,18.11-3.21,6.82-2.76,14,.5,20.77,3.77,7.79,3.49,15.3-1.74,22a32.86,32.86,0,0,0-7.06,23.29c.24,3.71,1.27,6.9,5.49,6.95,4.51.05,6.08-3.28,5.7-7.17-.7-7.14,2.25-12.59,6.16-18.34,6.26-9.22,7.1-19.72,2.39-29.91-2.71-5.88-2.66-10.82.35-16.49C269.26,328.41,281.45,320.11,287.12,305.66Z" transform="translate(-231.73 -290.71)"/><path class="cls-2" d="M289.64,415.05c-7.11,15.67-14.32,31.13-18.49,47.79-5.06,20.18-10.56,40.24-14.36,60.73-1.1,5.94-3.71,11.74-10.62,13.19-7.46,1.56-13.77-5.18-14.33-14.78a78.35,78.35,0,0,1,4.73-30.91,333.23,333.23,0,0,1,19.79-45.25c7-13.2,13.78-26.59,19.53-40.45,4.43-10.7,11.93-19.53,18.34-29,1.63-2.42,4-2.23,5,.51,5.88,16.52,19.28,28.21,27.59,43.2a208.28,208.28,0,0,0,22,32.75c1.77,2.12,2.75,4.93,4,7.47,8.2,16.76,18.84,32.2,26.69,49.15,1.68,3.62,3.5,7.15,4,11.22,1.09,7.94-1.42,11.94-9.22,13a57.62,57.62,0,0,1-13.95.08c-7.21-.82-10.91-5.21-10.94-12.48,0-8.19.61-16.63-2.43-24.24-7.62-19.05-12.78-39.38-27.09-55.18-4.05-4.49-6.92-9.77-9.73-15.08-.46-.88-.88-1.94-2.1-1.77-1.45.2-1,1.46-1.06,2.37-1.76,17.65.19,35.28.57,52.91.12,5.37,2.36,10.39,5.31,14.92,6.55,10.09,6.2,21.15,4.54,32.34-.8,5.33-3.54,7.54-8.77,7.66-3.5.08-7,0-10.5-.18-4.29-.26-6.49-2.25-6.41-7,.22-14,0-28,.08-42C291.82,462.33,289.71,438.77,289.64,415.05Z" transform="translate(-231.73 -290.71)"/><path class="cls-3" d="M287.12,305.66c-5.67,14.45-17.86,22.75-24.48,35.18-3,5.67-3.06,10.61-.35,16.49,4.71,10.19,3.87,20.69-2.39,29.91-3.91,5.75-6.86,11.2-6.16,18.34.38,3.89-1.19,7.22-5.7,7.17-4.22-.05-5.25-3.24-5.49-6.95a32.86,32.86,0,0,1,7.06-23.29c5.23-6.69,5.51-14.2,1.74-22-3.26-6.75-3.71-13.95-.5-20.77,3-6.46,6.25-13,11.37-18.11,7.38-7.4,12.57-16.31,18.16-25,2-3.05,3.83-6.51,8.42-5.88s6.41,3.75,7.63,7.62c1.09,3.44,2.56,5,6.83,3.64,6.67-2.06,10.25-.34,13.78,5.8,6.13,10.64,8.37,21.3,3.79,33.78-5.67,15.43-3.9,16.21,7.31,24.15,5.42,3.84,11.18,7.12,16.26,11.53,5.92,5.14,7,11.44,6.2,18.51-.37,3.19-2.38,5.21-5.75,5.07-3.1-.13-5.34-2.22-5.07-5.13.86-9.14-5.47-12.78-11.8-16.64-2-1.21-3.85-2.62-5.79-3.9-16.69-11-18.59-17.44-11.86-37.67,2.56-7.68,1.83-14.24-1.22-21.16-1.25-2.83-2.79-4.56-6.07-2.74a5.55,5.55,0,0,1-1.44.39C294,315.8,290.47,314,287.12,305.66Z" transform="translate(-231.73 -290.71)"/></svg>