<svg xmlns="http://www.w3.org/2000/svg" xmlns:xlink="http://www.w3.org/1999/xlink" viewBox="0 0 628.65 1516.25"><defs><style>.cls-1{fill:#fff7e6;}.cls-1,.cls-2,.cls-4{opacity:0.86;}.cls-2{fill:#ffda8f;}.cls-3{opacity:0.83;}.cls-4{fill:url(#linear-gradient);}.cls-5{fill:#ffefcc;}.cls-6{fill:#404040;}</style><linearGradient id="linear-gradient" x1="0.16" y1="940.02" x2="627.82" y2="940.02" gradientUnits="userSpaceOnUse"><stop offset="0" stop-color="#ffb96a"/><stop offset="1" stop-color="#ff9494"/></linearGradient></defs><title>kindling3_1</title><g id="Layer_2" data-name="Layer 2"><g id="Layer_1-2" data-name="Layer 1"><path class="cls-1" d="M553.44,1064.1C695.66,882.72,632.14,630,396.35,470.68c0,0-132.58-92.22-97.72-165.93,9.09-19.23-10.48-39.65-30.23-31.73-25.37,10.17-51,28.78-66.41,62.47-99.5,217.3,176.1,242.32,115.62,384C276,817.05,174.45,772.72,174.45,772.72l.77.89-.52-.23a107.86,107.86,0,0,1-61.07-77.65c-3.69-19-27.95-25.2-40.47-10.47a306.24,306.24,0,0,0,107.12,477.27c102.46,46.29,217.11,31.47,302.85-29.14C483.13,1133.39,529.75,1099.29,553.44,1064.1Z"/><path class="cls-2" d="M396.28,470.69S263.67,378.5,298.51,304.78c9.09-19.24-10.48-39.65-30.23-31.72-25.37,10.18-51,28.79-66.4,62.48-74.9,163.7,63,218.25,109.76,295.76a407.7,407.7,0,0,1,86.17,251.2c0,120.68-52.14,229.17-135.17,304.14a306.74,306.74,0,0,0,220.6-53.28s46.61-34.1,70.29-69.3C695.7,882.64,632.11,629.88,396.28,470.69Z"/><g class="cls-3"><path class="cls-4" d="M384.77,1011c-156.56,0-283.7-127.73-283-284.29,0-3.65.11-7.29.26-10.9,1-22.95-28.29-33.55-41.93-15.07A307.76,307.76,0,0,0,28,755.26c-70.36,153.65-2.83,335.25,150.82,405.62,102.83,47.08,218.16,32.41,304.3-28.49,0,0,46.62-34.1,70.31-69.29,45.38-57.88,69.81-123,74.38-190.08C578.41,955.66,488.06,1011,384.77,1011Z"/></g><circle class="cls-5" cx="316.77" cy="60" r="60"/><path class="cls-6" d="M548.05,1516.25a29.21,29.21,0,0,1-12-2.57L89.5,1314a29.35,29.35,0,0,1,24-53.58l446.59,199.72a29.35,29.35,0,0,1-12,56.14Z"/><path class="cls-6" d="M101.5,1516.25a29.35,29.35,0,0,1-12-56.14l446.59-199.72a29.35,29.35,0,0,1,24,53.58L113.46,1513.68A29.25,29.25,0,0,1,101.5,1516.25Z"/></g></g></svg>